<svg width="24" height="24" viewBox="0 0 24 24" fill="none" xmlns="http://www.w3.org/2000/svg">
<path d="M20.9453 18.0923L17.967 4.7955C17.6978 3.58425 16.4903 2.82 15.2813 3.08925L14.5493 3.25275C14.1998 3.33075 13.8878 3.48675 13.6268 3.69825C13.2165 3.2685 12.639 3 11.9993 3H7.49925C6.25875 3 5.24925 4.0095 5.24925 5.25V6.75C5.24925 7.164 5.5845 7.5 5.99925 7.5C6.414 7.5 6.74925 7.164 6.74925 6.75V5.25C6.74925 4.83675 7.08525 4.5 7.49925 4.5H8.99925V9C8.99925 9.414 9.3345 9.75 9.74925 9.75C10.164 9.75 10.4993 9.414 10.4993 9V8.25H12.7493V15.75H10.4993V15C10.4993 14.586 10.164 14.25 9.74925 14.25C9.3345 14.25 8.99925 14.586 8.99925 15V19.5H7.49925C7.08525 19.5 6.74925 19.1633 6.74925 18.75V17.25C6.74925 16.836 6.414 16.5 5.99925 16.5C5.5845 16.5 5.24925 16.836 5.24925 17.25V18.75C5.24925 19.9905 6.25875 21 7.49925 21H11.9993C13.2398 21 14.2493 19.9905 14.2493 18.75V12.2205L15.822 19.2435C16.0568 20.2882 16.989 21.0008 18.018 21.0008C18.1793 21.0008 18.3435 20.9835 18.507 20.9468L19.239 20.7833C19.8263 20.652 20.3273 20.3003 20.6498 19.7925C20.9723 19.284 21.0765 18.681 20.9453 18.0938V18.0923ZM14.9648 8.547L17.1608 8.05575L18.861 15.6473L16.6643 16.1377L14.964 8.547H14.9648ZM14.8763 4.716C14.8763 4.716 15.7178 4.5345 15.7725 4.5345C15.9135 4.5345 16.0515 4.57425 16.173 4.6515C16.3425 4.7595 16.4595 4.926 16.503 5.12175L16.8323 6.59175L14.6363 7.083L14.307 5.6115C14.2178 5.20725 14.4728 4.806 14.8763 4.716ZM10.5 6.7485V4.4985H12C12.414 4.4985 12.75 4.83525 12.75 5.2485V6.7485H10.5ZM12 19.4985H10.5V17.2485H12.75V18.7485C12.75 19.1618 12.414 19.4985 12 19.4985ZM19.383 18.9862C19.2758 19.1558 19.1093 19.2728 18.9128 19.3162L18.1808 19.4798C17.778 19.5675 17.3768 19.3155 17.286 18.9128L16.992 17.601L19.1888 17.1112L19.482 18.42C19.5263 18.6158 19.491 18.8175 19.383 18.9862ZM5.25 12.7485H3.75C3.33525 12.7485 3 12.4125 3 11.9985C3 11.5845 3.33525 11.2485 3.75 11.2485H5.25V9.7485C5.25 9.3345 5.58525 8.9985 6 8.9985C6.41475 8.9985 6.75 9.3345 6.75 9.7485V11.2485H8.25C8.66475 11.2485 9 11.5845 9 11.9985C9 12.4125 8.66475 12.7485 8.25 12.7485H6.75V14.2485C6.75 14.6625 6.41475 14.9985 6 14.9985C5.58525 14.9985 5.25 14.6625 5.25 14.2485V12.7485Z" fill="black"/>
</svg>
