<svg width="24" height="24" viewBox="0 0 24 24" fill="none" xmlns="http://www.w3.org/2000/svg">
<path d="M10.8947 13C11.0901 13 11.2776 13.079 11.4157 13.2197C11.5539 13.3603 11.6316 13.5511 11.6316 13.75C11.6316 13.9489 11.5539 14.1397 11.4157 14.2803C11.2776 14.421 11.0901 14.5 10.8947 14.5H8.6842C8.48878 14.5 8.30136 14.421 8.16317 14.2803C8.02499 14.1397 7.94736 13.9489 7.94736 13.75C7.94736 13.5511 8.02499 13.3603 8.16317 13.2197C8.30136 13.079 8.48878 13 8.6842 13H10.8947ZM15.3158 10.75C15.3158 10.5511 15.2381 10.3603 15.0999 10.2197C14.9618 10.079 14.7743 10 14.5789 10H8.6842C8.48878 10 8.30136 10.079 8.16317 10.2197C8.02499 10.3603 7.94736 10.5511 7.94736 10.75C7.94736 10.9489 8.02499 11.1397 8.16317 11.2803C8.30136 11.421 8.48878 11.5 8.6842 11.5H14.5789C14.7743 11.5 14.9618 11.421 15.0999 11.2803C15.2381 11.1397 15.3158 10.9489 15.3158 10.75ZM8.6842 8.5H14.5789C14.7743 8.5 14.9618 8.42098 15.0999 8.28033C15.2381 8.13968 15.3158 7.94891 15.3158 7.75C15.3158 7.55109 15.2381 7.36032 15.0999 7.21967C14.9618 7.07902 14.7743 7 14.5789 7H8.6842C8.48878 7 8.30136 7.07902 8.16317 7.21967C8.02499 7.36032 7.94736 7.55109 7.94736 7.75C7.94736 7.94891 8.02499 8.13968 8.16317 8.28033C8.30136 8.42098 8.48878 8.5 8.6842 8.5ZM17.5263 18.583V21.4578C17.5263 21.5647 17.4952 21.6693 17.4368 21.7583C17.3785 21.8473 17.2955 21.9166 17.1984 21.9576C17.1012 21.9985 16.9944 22.0092 16.8913 21.9884C16.7882 21.9675 16.6935 21.9159 16.6192 21.8403L16.0526 21.2642L15.486 21.8403C15.4117 21.9159 15.317 21.9675 15.2139 21.9884C15.1108 22.0092 15.0039 21.9985 14.9068 21.9576C14.8097 21.9166 14.7267 21.8473 14.6684 21.7583C14.61 21.6693 14.5789 21.5647 14.5789 21.4578V18.583C14.017 18.2544 13.5775 17.7458 13.3291 17.1365C13.0807 16.5272 13.0371 15.8514 13.2053 15.2143C13.3735 14.5773 13.7439 14.0147 14.2589 13.6142C14.7738 13.2137 15.4045 12.9977 16.0526 13C16.3017 13.0032 16.5493 13.039 16.7894 13.1065V7.75C16.7894 7.15326 16.5565 6.58097 16.142 6.15901C15.7274 5.73705 15.1652 5.5 14.5789 5.5H8.6842C8.09793 5.5 7.53568 5.73705 7.12113 6.15901C6.70657 6.58097 6.47368 7.15326 6.47368 7.75V16.75C6.47368 17.3467 6.70657 17.919 7.12113 18.341C7.53568 18.7629 8.09793 19 8.6842 19H12.3684C12.5638 19 12.7512 19.079 12.8894 19.2197C13.0276 19.3603 13.1052 19.5511 13.1052 19.75C13.1052 19.9489 13.0276 20.1397 12.8894 20.2803C12.7512 20.421 12.5638 20.5 12.3684 20.5H8.6842C7.70745 20.4988 6.77104 20.1033 6.08037 19.4003C5.3897 18.6973 5.00117 17.7442 5 16.75V7.75C5.00117 6.7558 5.3897 5.80267 6.08037 5.09966C6.77104 4.39666 7.70745 4.00119 8.6842 4H14.5789C15.5557 4.00119 16.4921 4.39666 17.1827 5.09966C17.8734 5.80267 18.2619 6.7558 18.2631 7.75V14.0365C18.5517 14.3664 18.7642 14.7579 18.885 15.1822C19.0058 15.6065 19.0318 16.0529 18.9612 16.4888C18.8905 16.9247 18.725 17.339 18.4767 17.7013C18.2285 18.0637 17.9037 18.3649 17.5263 18.583ZM17.5263 16C17.5263 15.7033 17.4398 15.4133 17.2779 15.1666C17.116 14.92 16.8858 14.7277 16.6165 14.6142C16.3473 14.5006 16.051 14.4709 15.7651 14.5288C15.4792 14.5867 15.2166 14.7296 15.0105 14.9393C14.8044 15.1491 14.6641 15.4164 14.6072 15.7074C14.5504 15.9983 14.5796 16.2999 14.6911 16.574C14.8026 16.8481 14.9915 17.0824 15.2339 17.2472C15.4762 17.412 15.7611 17.5 16.0526 17.5C16.4434 17.5 16.8183 17.342 17.0946 17.0607C17.371 16.7794 17.5263 16.3978 17.5263 16Z" fill="black"/>
</svg>
