<svg width="24" height="24" viewBox="0 0 24 24" fill="none" xmlns="http://www.w3.org/2000/svg">
<path d="M12 3C10.22 3 8.47991 3.52784 6.99987 4.51677C5.51983 5.50571 4.36628 6.91131 3.68509 8.55585C3.0039 10.2004 2.82567 12.01 3.17294 13.7558C3.5202 15.5016 4.37737 17.1053 5.63604 18.364C6.89472 19.6226 8.49836 20.4798 10.2442 20.8271C11.99 21.1743 13.7996 20.9961 15.4442 20.3149C17.0887 19.6337 18.4943 18.4802 19.4832 17.0001C20.4722 15.5201 21 13.78 21 12C20.9974 9.61384 20.0484 7.32616 18.3611 5.63889C16.6738 3.95162 14.3862 3.00258 12 3ZM19.5 12C19.5009 13.4698 19.0672 14.907 18.2535 16.131L17.3595 15.2363C17.2894 15.166 17.25 15.0708 17.25 14.9715V14.25C17.25 13.6533 17.013 13.081 16.591 12.659C16.169 12.2371 15.5967 12 15 12H12.75C12.5511 12 12.3603 11.921 12.2197 11.7803C12.079 11.6397 12 11.4489 12 11.25V10.875C12 10.7755 12.0395 10.6802 12.1098 10.6098C12.1802 10.5395 12.2755 10.5 12.375 10.5C12.8723 10.5 13.3492 10.3025 13.7008 9.95083C14.0525 9.5992 14.25 9.12228 14.25 8.625V7.875C14.25 7.77554 14.2895 7.68016 14.3598 7.60984C14.4302 7.53951 14.5255 7.5 14.625 7.5H15.6593C16.156 7.49859 16.6322 7.30132 16.9845 6.951L17.2673 6.66825C17.9746 7.36431 18.5364 8.19423 18.9197 9.10963C19.3031 10.025 19.5003 11.0076 19.5 12ZM4.53675 12.7223L6.90525 15.0908C7.11368 15.3005 7.36169 15.4668 7.63489 15.58C7.90809 15.6932 8.20104 15.7509 8.49675 15.75H10.5C10.6989 15.75 10.8897 15.829 11.0303 15.9697C11.171 16.1103 11.25 16.3011 11.25 16.5V19.4618C9.52515 19.2857 7.9143 18.5184 6.6907 17.29C5.4671 16.0616 4.70609 14.4478 4.53675 12.7223ZM12.75 19.4618V16.5C12.75 15.9033 12.513 15.331 12.091 14.909C11.669 14.4871 11.0967 14.25 10.5 14.25H8.49675C8.39814 14.2501 8.30049 14.2307 8.20937 14.193C8.11826 14.1553 8.03547 14.1 7.96575 14.0303L4.62225 10.6868C4.83689 9.46665 5.35106 8.31892 6.11864 7.34654C6.88621 6.37415 7.88319 5.60753 9.0201 5.11546C10.157 4.62339 11.3983 4.42126 12.6326 4.52721C13.8669 4.63316 15.0556 5.04387 16.092 5.7225L15.924 5.8905C15.8534 5.96012 15.7584 5.99941 15.6593 6H14.625C14.1277 6 13.6508 6.19754 13.2992 6.54918C12.9475 6.90081 12.75 7.37772 12.75 7.875V8.625C12.75 8.72446 12.7105 8.81984 12.6402 8.89017C12.5698 8.96049 12.4745 9 12.375 9C11.8777 9 11.4008 9.19754 11.0492 9.54918C10.6975 9.90081 10.5 10.3777 10.5 10.875V11.25C10.5 11.8467 10.7371 12.419 11.159 12.841C11.581 13.2629 12.1533 13.5 12.75 13.5H15C15.1989 13.5 15.3897 13.579 15.5303 13.7197C15.671 13.8603 15.75 14.0511 15.75 14.25V14.9715C15.7514 15.4683 15.9487 15.9445 16.299 16.2968L17.3018 17.2995C16.0803 18.5251 14.4717 19.2893 12.75 19.4618Z" fill="black"/>
</svg>
