<svg width="24" height="24" viewBox="0 0 24 24" fill="none" xmlns="http://www.w3.org/2000/svg">
<path d="M20.25 19.5H6.75C6.15326 19.5 5.58097 19.2629 5.15901 18.841C4.73705 18.419 4.5 17.8467 4.5 17.25V3.75C4.5 3.55109 4.42098 3.36032 4.28033 3.21967C4.13968 3.07902 3.94891 3 3.75 3C3.55109 3 3.36032 3.07902 3.21967 3.21967C3.07902 3.36032 3 3.55109 3 3.75V17.25C3.00119 18.2442 3.39666 19.1973 4.09966 19.9003C4.80267 20.6033 5.7558 20.9988 6.75 21H20.25C20.4489 21 20.6397 20.921 20.7803 20.7803C20.921 20.6397 21 20.4489 21 20.25C21 20.0511 20.921 19.8603 20.7803 19.7197C20.6397 19.579 20.4489 19.5 20.25 19.5Z" fill="black"/>
<path d="M7.5 18C7.69891 18 7.88968 17.921 8.03033 17.7803C8.17098 17.6397 8.25 17.4489 8.25 17.25V12C8.25 11.8011 8.17098 11.6103 8.03033 11.4697C7.88968 11.329 7.69891 11.25 7.5 11.25C7.30109 11.25 7.11032 11.329 6.96967 11.4697C6.82902 11.6103 6.75 11.8011 6.75 12V17.25C6.75 17.4489 6.82902 17.6397 6.96967 17.7803C7.11032 17.921 7.30109 18 7.5 18Z" fill="black"/>
<path d="M10.5 10.5V17.25C10.5 17.4489 10.579 17.6397 10.7197 17.7803C10.8603 17.921 11.0511 18 11.25 18C11.4489 18 11.6397 17.921 11.7803 17.7803C11.921 17.6397 12 17.4489 12 17.25V10.5C12 10.3011 11.921 10.1103 11.7803 9.96967C11.6397 9.82902 11.4489 9.75 11.25 9.75C11.0511 9.75 10.8603 9.82902 10.7197 9.96967C10.579 10.1103 10.5 10.3011 10.5 10.5Z" fill="black"/>
<path d="M14.25 12.75V17.25C14.25 17.4489 14.329 17.6397 14.4697 17.7803C14.6103 17.921 14.8011 18 15 18C15.1989 18 15.3897 17.921 15.5303 17.7803C15.671 17.6397 15.75 17.4489 15.75 17.25V12.75C15.75 12.5511 15.671 12.3603 15.5303 12.2197C15.3897 12.079 15.1989 12 15 12C14.8011 12 14.6103 12.079 14.4697 12.2197C14.329 12.3603 14.25 12.5511 14.25 12.75Z" fill="black"/>
<path d="M18 9.75V17.25C18 17.4489 18.079 17.6397 18.2197 17.7803C18.3603 17.921 18.5511 18 18.75 18C18.9489 18 19.1397 17.921 19.2803 17.7803C19.421 17.6397 19.5 17.4489 19.5 17.25V9.75C19.5 9.55109 19.421 9.36032 19.2803 9.21967C19.1397 9.07902 18.9489 9 18.75 9C18.5511 9 18.3603 9.07902 18.2197 9.21967C18.079 9.36032 18 9.55109 18 9.75Z" fill="black"/>
<path d="M7.49984 9.75055C7.69874 9.75051 7.88947 9.67146 8.03009 9.5308L10.7196 6.8413C10.8625 6.70512 11.0524 6.62916 11.2498 6.62916C11.4473 6.62916 11.6371 6.70512 11.7801 6.8413L13.4091 8.4703C13.831 8.89211 14.4032 9.12907 14.9998 9.12907C15.5965 9.12907 16.1687 8.89211 16.5906 8.4703L20.7801 4.2808C20.9167 4.13935 20.9923 3.9499 20.9906 3.75325C20.9889 3.5566 20.91 3.36849 20.771 3.22944C20.6319 3.09038 20.4438 3.0115 20.2471 3.00979C20.0505 3.00809 19.861 3.08368 19.7196 3.2203L15.5301 7.40905C15.3894 7.54965 15.1987 7.62864 14.9998 7.62864C14.801 7.62864 14.6102 7.54965 14.4696 7.40905L12.8406 5.7808C12.4187 5.35899 11.8465 5.12203 11.2498 5.12203C10.6532 5.12203 10.081 5.35899 9.65909 5.7808L6.96959 8.4703C6.86473 8.57519 6.79333 8.70881 6.7644 8.85428C6.73548 8.99974 6.75033 9.15052 6.80708 9.28754C6.86383 9.42456 6.95994 9.54169 7.08325 9.6241C7.20655 9.70651 7.35153 9.75052 7.49984 9.75055Z" fill="black"/>
</svg>
