<svg width="24" height="24" viewBox="0 0 24 24" fill="none" xmlns="http://www.w3.org/2000/svg">
<path d="M17.25 4H6.75C5.7558 4.00115 4.80267 4.38464 4.09966 5.06634C3.39666 5.74804 3.00119 6.67229 3 7.63636L3 16.3636C3.00119 17.3277 3.39666 18.252 4.09966 18.9337C4.80267 19.6154 5.7558 19.9988 6.75 20H17.25C18.2442 19.9988 19.1973 19.6154 19.9003 18.9337C20.6033 18.252 20.9988 17.3277 21 16.3636V7.63636C20.9988 6.67229 20.6033 5.74804 19.9003 5.06634C19.1973 4.38464 18.2442 4.00115 17.25 4ZM6.75 5.45455H17.25C17.6991 5.4554 18.1376 5.58656 18.5092 5.83113C18.8808 6.0757 19.1684 6.42251 19.335 6.82691L13.5915 12.3971C13.1688 12.8053 12.5966 13.0345 12 13.0345C11.4034 13.0345 10.8312 12.8053 10.4085 12.3971L4.665 6.82691C4.83161 6.42251 5.11921 6.0757 5.49079 5.83113C5.86236 5.58656 6.30091 5.4554 6.75 5.45455ZM17.25 18.5455H6.75C6.15326 18.5455 5.58097 18.3156 5.15901 17.9064C4.73705 17.4972 4.5 16.9423 4.5 16.3636V8.72727L9.348 13.4255C10.052 14.1064 11.0057 14.4888 12 14.4888C12.9943 14.4888 13.948 14.1064 14.652 13.4255L19.5 8.72727V16.3636C19.5 16.9423 19.2629 17.4972 18.841 17.9064C18.419 18.3156 17.8467 18.5455 17.25 18.5455Z" fill="black"/>
</svg>
