<svg width="24" height="24" viewBox="0 0 24 24" fill="none" xmlns="http://www.w3.org/2000/svg">
<path d="M12 18.75C12 19.1647 11.664 19.5 11.25 19.5H6.75C4.68225 19.5 3 17.8177 3 15.75V6.75C3 4.68225 4.68225 3 6.75 3H15.75C17.8177 3 19.5 4.68225 19.5 6.75V11.25C19.5 11.6648 19.164 12 18.75 12C18.336 12 18 11.6648 18 11.25V6.75C18 5.5095 16.9905 4.5 15.75 4.5H6.75C5.5095 4.5 4.5 5.5095 4.5 6.75V11.9692L6.606 9.86325C7.755 8.7135 9.62475 8.7135 10.7745 9.86325L14.7802 13.869C15.0735 14.1622 15.0735 14.6363 14.7802 14.9295C14.634 15.0758 14.442 15.1493 14.25 15.1493C14.058 15.1493 13.866 15.0758 13.7198 14.9295L9.714 10.9237C9.15 10.3605 8.232 10.3597 7.6665 10.9237L4.5 14.0903V15.75C4.5 16.9905 5.5095 18 6.75 18H11.25C11.664 18 12 18.3352 12 18.75ZM14.25 5.625C15.4905 5.625 16.5 6.6345 16.5 7.875C16.5 9.1155 15.4905 10.125 14.25 10.125C13.0095 10.125 12 9.1155 12 7.875C12 6.6345 13.0095 5.625 14.25 5.625ZM14.25 7.125C13.8368 7.125 13.5 7.461 13.5 7.875C13.5 8.289 13.8368 8.625 14.25 8.625C14.6632 8.625 15 8.289 15 7.875C15 7.461 14.6632 7.125 14.25 7.125ZM20.25 16.5H18V14.25C18 13.8352 17.664 13.5 17.25 13.5C16.836 13.5 16.5 13.8352 16.5 14.25V16.5H14.25C13.836 16.5 13.5 16.8352 13.5 17.25C13.5 17.6648 13.836 18 14.25 18H16.5V20.25C16.5 20.6647 16.836 21 17.25 21C17.664 21 18 20.6647 18 20.25V18H20.25C20.664 18 21 17.6648 21 17.25C21 16.8352 20.664 16.5 20.25 16.5Z" fill="black"/>
</svg>
