<svg width="24" height="24" viewBox="0 0 24 24" fill="none" xmlns="http://www.w3.org/2000/svg">
<path d="M8.66667 4H6.66667C5.95942 4 5.28115 4.28095 4.78105 4.78105C4.28095 5.28114 4 5.95942 4 6.66666L4 8.66666C4 9.3739 4.28095 10.0522 4.78105 10.5523C5.28115 11.0524 5.95942 11.3333 6.66667 11.3333H8.66667C9.37391 11.3333 10.0522 11.0524 10.5523 10.5523C11.0524 10.0522 11.3333 9.3739 11.3333 8.66666V6.66666C11.3333 5.95942 11.0524 5.28114 10.5523 4.78105C10.0522 4.28095 9.37391 4 8.66667 4ZM10 8.66666C10 9.02028 9.85953 9.35942 9.60948 9.60947C9.35943 9.85951 9.02029 9.99999 8.66667 9.99999H6.66667C6.31305 9.99999 5.97391 9.85951 5.72386 9.60947C5.47381 9.35942 5.33333 9.02028 5.33333 8.66666V6.66666C5.33333 6.31304 5.47381 5.9739 5.72386 5.72385C5.97391 5.47381 6.31305 5.33333 6.66667 5.33333H8.66667C9.02029 5.33333 9.35943 5.47381 9.60948 5.72385C9.85953 5.9739 10 6.31304 10 6.66666V8.66666Z" fill="black"/>
<path d="M8.66667 12.667H6.66667C5.95942 12.667 5.28115 12.9479 4.78105 13.448C4.28095 13.9481 4 14.6264 4 15.3337L4 17.3337C4 18.0409 4.28095 18.7192 4.78105 19.2193C5.28115 19.7194 5.95942 20.0003 6.66667 20.0003H8.66667C9.37391 20.0003 10.0522 19.7194 10.5523 19.2193C11.0524 18.7192 11.3333 18.0409 11.3333 17.3337V15.3337C11.3333 14.6264 11.0524 13.9481 10.5523 13.448C10.0522 12.9479 9.37391 12.667 8.66667 12.667ZM10 17.3337C10 17.6873 9.85953 18.0264 9.60948 18.2765C9.35943 18.5265 9.02029 18.667 8.66667 18.667H6.66667C6.31305 18.667 5.97391 18.5265 5.72386 18.2765C5.47381 18.0264 5.33333 17.6873 5.33333 17.3337V15.3337C5.33333 14.98 5.47381 14.6409 5.72386 14.3908C5.97391 14.1408 6.31305 14.0003 6.66667 14.0003H8.66667C9.02029 14.0003 9.35943 14.1408 9.60948 14.3908C9.85953 14.6409 10 14.98 10 15.3337V17.3337Z" fill="black"/>
<path d="M17.3337 12.667H15.3337C14.6264 12.667 13.9481 12.9479 13.448 13.448C12.9479 13.9481 12.667 14.6264 12.667 15.3337V17.3337C12.667 18.0409 12.9479 18.7192 13.448 19.2193C13.9481 19.7194 14.6264 20.0003 15.3337 20.0003H17.3337C18.0409 20.0003 18.7192 19.7194 19.2193 19.2193C19.7194 18.7192 20.0003 18.0409 20.0003 17.3337V15.3337C20.0003 14.6264 19.7194 13.9481 19.2193 13.448C18.7192 12.9479 18.0409 12.667 17.3337 12.667ZM18.667 17.3337C18.667 17.6873 18.5265 18.0264 18.2765 18.2765C18.0264 18.5265 17.6873 18.667 17.3337 18.667H15.3337C14.98 18.667 14.6409 18.5265 14.3909 18.2765C14.1408 18.0264 14.0003 17.6873 14.0003 17.3337V15.3337C14.0003 14.98 14.1408 14.6409 14.3909 14.3908C14.6409 14.1408 14.98 14.0003 15.3337 14.0003H17.3337C17.6873 14.0003 18.0264 14.1408 18.2765 14.3908C18.5265 14.6409 18.667 14.98 18.667 15.3337V17.3337Z" fill="black"/>
<path d="M13.3337 8.66699H15.3337V10.667C15.3337 10.8438 15.4039 11.0134 15.5289 11.1384C15.6539 11.2634 15.8235 11.3336 16.0003 11.3336C16.1771 11.3336 16.3467 11.2634 16.4717 11.1384C16.5968 11.0134 16.667 10.8438 16.667 10.667V8.66699H18.667C18.8438 8.66699 19.0134 8.59675 19.1384 8.47172C19.2634 8.3467 19.3337 8.17713 19.3337 8.00032C19.3337 7.82351 19.2634 7.65394 19.1384 7.52892C19.0134 7.40389 18.8438 7.33365 18.667 7.33365H16.667V5.33366C16.667 5.15685 16.5968 4.98728 16.4717 4.86225C16.3467 4.73723 16.1771 4.66699 16.0003 4.66699C15.8235 4.66699 15.6539 4.73723 15.5289 4.86225C15.4039 4.98728 15.3337 5.15685 15.3337 5.33366V7.33365H13.3337C13.1568 7.33365 12.9873 7.40389 12.8623 7.52892C12.7372 7.65394 12.667 7.82351 12.667 8.00032C12.667 8.17713 12.7372 8.3467 12.8623 8.47172C12.9873 8.59675 13.1568 8.66699 13.3337 8.66699Z" fill="black"/>
</svg>
