<svg width="24" height="24" viewBox="0 0 24 24" fill="none" xmlns="http://www.w3.org/2000/svg">
<path d="M19.0427 4.9563C17.4598 3.3734 15.0961 3.75946 11.9997 6.08981C8.90386 3.75946 6.54083 3.37273 4.95659 4.9563C3.37235 6.53988 3.75974 8.9029 6.0901 11.9994C3.75974 15.0952 3.37302 17.4589 4.95659 19.0424C5.2535 19.3503 5.61029 19.5941 6.00498 19.7589C6.39968 19.9237 6.82393 20.0059 7.25161 20.0006C8.5658 20.0006 10.1527 19.2991 11.9997 17.9096C13.8459 19.2991 15.4328 20.0006 16.7477 20.0006C17.1754 20.0059 17.5996 19.9237 17.9943 19.7589C18.389 19.5941 18.7458 19.3503 19.0427 19.0424C20.6263 17.4589 20.2429 15.0958 17.9092 11.9994C20.2396 8.9029 20.6263 6.53988 19.0427 4.9563ZM16.7237 5.35036C16.9785 5.34269 17.2322 5.38717 17.4692 5.48108C17.7062 5.57498 17.9215 5.71633 18.1019 5.89645C19.2661 7.06129 18.406 9.03892 17.0431 10.9232C16.4843 10.2644 15.8549 9.57967 15.1375 8.86156C14.42 8.14345 13.7333 7.51402 13.0745 6.95461C14.34 6.03913 15.6482 5.35036 16.7237 5.35036ZM16.2076 11.9994C15.5335 12.8128 14.8194 13.5736 14.1967 14.1997C13.5739 14.8258 12.8131 15.5332 11.9997 16.2073C11.1862 15.5332 10.4254 14.8191 9.80266 14.1997C9.1799 13.5803 8.46579 12.8128 7.79169 11.9994C8.46579 11.1859 9.1799 10.4245 9.80266 9.80237C10.4254 9.18028 11.1862 8.4655 11.9997 7.79073C12.8131 8.46417 13.5739 9.17961 14.2 9.80237C14.8261 10.4251 15.5335 11.1859 16.2076 11.9994ZM5.8974 5.89711C6.07761 5.71669 6.29286 5.57509 6.5299 5.48105C6.76694 5.38702 7.02072 5.34254 7.27561 5.35036C8.35111 5.35036 9.6593 6.03913 10.9248 6.95461C10.2661 7.51402 9.58063 8.14345 8.86185 8.86156C8.14307 9.57967 7.51498 10.2618 6.95556 10.9232C5.59335 9.03892 4.73189 7.06129 5.8974 5.89711ZM5.8974 18.099C4.73322 16.9348 5.59335 14.9565 6.95556 13.0729C7.51498 13.7316 8.14441 14.4164 8.86185 15.1345C9.57929 15.8526 10.2621 16.4834 10.9215 17.0421C9.03788 18.4063 7.06024 19.2671 5.8974 18.1016V18.099ZM18.0992 18.099C16.9357 19.2618 14.9588 18.4037 13.0752 17.0421C13.7326 16.4834 14.418 15.8506 15.1348 15.1345C15.8516 14.4184 16.4817 13.7343 17.0404 13.0729C18.406 14.9598 19.2674 16.9375 18.1019 18.1016L18.0992 18.099Z" fill="black"/>
<path d="M11.9996 13.3331C12.736 13.3331 13.3331 12.736 13.3331 11.9996C13.3331 11.2631 12.736 10.666 11.9996 10.666C11.2631 10.666 10.666 11.2631 10.666 11.9996C10.666 12.736 11.2631 13.3331 11.9996 13.3331Z" fill="black"/>
</svg>
