<svg width="24" height="24" viewBox="0 0 24 24" fill="none" xmlns="http://www.w3.org/2000/svg">
<path d="M20.8043 19.7438L16.3275 15.267C17.5475 13.775 18.1473 11.8711 18.0029 9.94918C17.8585 8.02728 16.9809 6.2344 15.5517 4.9414C14.1225 3.64839 12.251 2.95418 10.3242 3.00235C8.39753 3.05052 6.56303 3.8374 5.20022 5.20022C3.8374 6.56303 3.05052 8.39753 3.00235 10.3242C2.95418 12.251 3.64839 14.1225 4.9414 15.5517C6.2344 16.9809 8.02728 17.8585 9.94918 18.0029C11.8711 18.1473 13.775 17.5475 15.267 16.3275L19.7438 20.8043C19.8852 20.9409 20.0747 21.0165 20.2713 21.0148C20.468 21.0131 20.6561 20.9342 20.7951 20.7951C20.9342 20.6561 21.0131 20.468 21.0148 20.2713C21.0165 20.0747 20.9409 19.8852 20.8043 19.7438ZM10.524 16.524C9.33732 16.524 8.17728 16.1721 7.19059 15.5128C6.20389 14.8535 5.43485 13.9165 4.98073 12.8201C4.5266 11.7238 4.40778 10.5174 4.63929 9.35347C4.87081 8.18958 5.44225 7.12048 6.28137 6.28137C7.12048 5.44225 8.18958 4.87081 9.35347 4.63929C10.5174 4.40778 11.7238 4.5266 12.8201 4.98073C13.9165 5.43485 14.8535 6.20389 15.5128 7.19059C16.1721 8.17728 16.524 9.33732 16.524 10.524C16.5222 12.1148 15.8895 13.6398 14.7647 14.7647C13.6398 15.8895 12.1148 16.5222 10.524 16.524Z" fill="black"/>
</svg>
