<svg width="24" height="24" viewBox="0 0 24 24" fill="none" xmlns="http://www.w3.org/2000/svg">
<path d="M15 8.25H9C8.5875 8.25 8.25 8.5875 8.25 9V15C8.25 15.4125 8.5875 15.75 9 15.75H15C15.4125 15.75 15.75 15.4125 15.75 15V9C15.75 8.5875 15.4125 8.25 15 8.25ZM14.25 14.25H9.75V9.75H14.25V14.25ZM20.25 11.25C20.6625 11.25 21 10.9125 21 10.5C21 10.0875 20.6625 9.75 20.25 9.75H19.5V8.25H20.25C20.6625 8.25 21 7.9125 21 7.5C21 7.0875 20.6625 6.75 20.25 6.75H19.185C18.81 5.8875 18.1125 5.1975 17.25 4.815V3.75C17.25 3.3375 16.9125 3 16.5 3C16.0875 3 15.75 3.3375 15.75 3.75V4.5H14.25V3.75C14.25 3.3375 13.9125 3 13.5 3C13.0875 3 12.75 3.3375 12.75 3.75V4.5H11.25V3.75C11.25 3.3375 10.9125 3 10.5 3C10.0875 3 9.75 3.3375 9.75 3.75V4.5H8.25V3.75C8.25 3.3375 7.9125 3 7.5 3C7.0875 3 6.75 3.3375 6.75 3.75V4.815C5.8875 5.19 5.1975 5.8875 4.815 6.75H3.75C3.3375 6.75 3 7.0875 3 7.5C3 7.9125 3.3375 8.25 3.75 8.25H4.5V9.75H3.75C3.3375 9.75 3 10.0875 3 10.5C3 10.9125 3.3375 11.25 3.75 11.25H4.5V12.75H3.75C3.3375 12.75 3 13.0875 3 13.5C3 13.9125 3.3375 14.25 3.75 14.25H4.5V15.75H3.75C3.3375 15.75 3 16.0875 3 16.5C3 16.9125 3.3375 17.25 3.75 17.25H4.815C5.19 18.1125 5.8875 18.8025 6.75 19.185V20.25C6.75 20.6625 7.0875 21 7.5 21C7.9125 21 8.25 20.6625 8.25 20.25V19.5H9.75V20.25C9.75 20.6625 10.0875 21 10.5 21C10.9125 21 11.25 20.6625 11.25 20.25V19.5H12.75V20.25C12.75 20.6625 13.0875 21 13.5 21C13.9125 21 14.25 20.6625 14.25 20.25V19.5H15.75V20.25C15.75 20.6625 16.0875 21 16.5 21C16.9125 21 17.25 20.6625 17.25 20.25V19.185C18.1125 18.81 18.8025 18.1125 19.185 17.25H20.25C20.6625 17.25 21 16.9125 21 16.5C21 16.0875 20.6625 15.75 20.25 15.75H19.5V14.25H20.25C20.6625 14.25 21 13.9125 21 13.5C21 13.0875 20.6625 12.75 20.25 12.75H19.5V11.25H20.25ZM15.75 18H8.25C7.0125 18 6 16.9875 6 15.75V8.25C6 7.0125 7.0125 6 8.25 6H15.75C16.9875 6 18 7.0125 18 8.25V15.75C18 16.9875 16.9875 18 15.75 18Z" fill="black"/>
</svg>
