<svg width="116" height="43" viewBox="0 0 116 43" fill="none" xmlns="http://www.w3.org/2000/svg">
<path d="M38.4398 19.6602C37.1398 19.6602 35.2998 20.5602 35.2998 24.1502C35.2998 27.7402 37.1298 28.6402 38.4398 28.6402C39.7498 28.6402 41.5798 27.7402 41.5798 24.1502C41.5798 20.5602 39.7398 19.6602 38.4398 19.6602Z" fill="#30AE56"/>
<path d="M58.0098 0C40.1998 0 24.2698 2.96 13.6398 7.62C21.8798 5.44 32.8298 3.72 43.8998 3.72C70.7098 3.72 89.2198 11.46 89.2198 21.67C89.2198 29.19 78.1998 37.27 62.3198 37.27C72.1498 34.32 78.5998 30.28 78.5998 25.16C78.5998 15.54 59.3098 8.77 35.8398 8.77C19.0098 8.77 1.49982 11.95 0.0698242 21.36C0.0698242 33.15 26.0098 42.71 58.0198 42.71C90.0298 42.71 115.97 33.15 115.97 21.36C115.97 9.57 90.0098 0 58.0098 0ZM17.4398 30.91C13.2198 30.91 12.4998 28.21 12.4998 26.62L14.7198 26.14C14.7998 27.3 15.1598 28.7 17.2598 28.7C18.3998 28.7 19.6698 28.28 19.6698 27.04C19.6698 26.04 18.8398 25.45 16.5098 24.83C14.3598 24.26 12.6098 23.42 12.6098 20.89C12.6098 19.46 13.8398 17.41 17.1198 17.41C20.1298 17.41 21.3298 19.41 21.5898 20.64L19.5798 21.42C19.3998 20.85 18.8898 19.56 17.0198 19.56C16.0998 19.56 15.0998 19.98 15.0798 20.9C15.0498 21.91 15.8198 22.36 17.9898 22.91C20.3198 23.5 22.0798 24.48 22.0798 26.79C22.0798 30.47 18.4698 30.92 17.4598 30.92L17.4398 30.91ZM32.1798 30.57H23.1798V17.73H31.8998V19.87H25.6398V22.77H31.3998V24.91H25.6398V28.44H32.1698V30.58L32.1798 30.57ZM38.4398 30.91C36.9098 30.91 32.8898 30.18 32.8898 24.15C32.8898 18.12 36.9098 17.39 38.4398 17.39C39.9698 17.39 43.9898 18.12 43.9898 24.15C43.9898 30.18 39.9698 30.91 38.4398 30.91ZM54.8698 26.6C54.8698 29.05 53.0398 30.89 49.9798 30.89C46.9198 30.89 45.0898 29.05 45.0898 26.6V17.73H47.5498V26.21C47.5498 27.55 48.6398 28.66 49.9798 28.66C51.3198 28.66 52.4098 27.55 52.4098 26.21V17.73H54.8698V26.6ZM56.1198 30.57V17.73H58.5798V28.38H64.9998V30.57H56.1098H56.1198Z" fill="#30AE56"/>
</svg>
